<mxfile host="app.diagrams.net" modified="2024-07-22T13:39:58.270Z" agent="Mozilla/5.0 (Windows NT 10.0; Win64; x64) AppleWebKit/537.36 (KHTML, like Gecko) Chrome/126.0.0.0 Safari/537.36" version="24.7.1" etag="_UaMkzU5Xdl9lKuwrN3J" type="github">
  <diagram name="Страница — 1" id="BSOrIuUAVW4G2JnLfBGb">
    <mxGraphModel>
      <root>
        <mxCell id="0" />
        <mxCell id="1" parent="0" />
      </root>
    </mxGraphModel>
  </diagram>
</mxfile>
